<svg xmlns="http://www.w3.org/2000/svg" viewBox="0 0 177.43 163.89"><defs><style>.cls-1,.cls-2,.cls-3{font-size:12px;font-family:BookmanOldStyle, Bookman Old Style;}.cls-1{fill:blue;}.cls-2{fill:red;}.cls-3{fill:lime;}.cls-10,.cls-11,.cls-4,.cls-6,.cls-8{fill:none;}.cls-4,.cls-5{stroke:red;}.cls-11,.cls-4,.cls-5,.cls-6,.cls-7,.cls-8,.cls-9{stroke-miterlimit:10;}.cls-5,.cls-7,.cls-9{fill:#fff;}.cls-6,.cls-7{stroke:lime;}.cls-8,.cls-9{stroke:blue;}.cls-10{stroke:#fff;stroke-width:3px;}.cls-11{stroke:#000;}</style></defs><g id="レイヤー_2" data-name="レイヤー 2"><g id="レイヤー_1-2" data-name="レイヤー 1"><text class="cls-1" transform="translate(143.55 67.05)">Z</text><text class="cls-2" transform="translate(168.78 144.58)">X</text><text class="cls-3" transform="translate(27.58 10.09)">Y</text><polyline class="cls-4" points="148.86 138.77 162.97 145.27 148.86 151.77"/><line class="cls-5" x1="30.16" y1="145.27" x2="163.16" y2="145.27"/><polyline class="cls-6" points="24.16 27.07 30.66 12.96 37.16 27.07"/><line class="cls-7" x1="30.66" y1="145.77" x2="30.66" y2="12.77"/><polyline class="cls-8" points="123.67 70.27 138.9 67.23 131.31 80.78"/><line class="cls-9" x1="31.46" y1="145.3" x2="139.06" y2="67.12"/><polyline class="cls-10" points="1.32 62.22 4.32 56.6 8.32 61.52"/><path class="cls-10" d="M4.33,56.72c.09,9.64,11.24,17.44,25,17.44s25-7.86,25-17.56A14.15,14.15,0,0,0,50,46.77"/><polyline class="cls-11" points="1.32 62.22 4.32 56.6 8.32 61.52"/><path class="cls-11" d="M4.33,56.72c.09,9.64,11.24,17.44,25,17.44s25-7.86,25-17.56A14.15,14.15,0,0,0,50,46.77"/><polyline class="cls-10" points="92.04 74.29 89.33 79.66 94.63 78.52"/><path class="cls-10" d="M89.42,79.58A16.1,16.1,0,0,1,113,81.33a18.61,18.61,0,0,1-1.58,25.16,16.27,16.27,0,0,1-9,4.28"/><polyline class="cls-11" points="92.04 74.29 89.33 79.66 94.63 78.52"/><path class="cls-11" d="M89.42,79.58A16.1,16.1,0,0,1,113,81.33a18.61,18.61,0,0,1-1.58,25.16,16.27,16.27,0,0,1-9,4.28"/><polyline class="cls-10" points="122.75 123.95 116.9 126.08 122 129.03"/><path class="cls-10" d="M117,126.08a18.3,18.3,0,0,1,18,18.32,18.19,18.19,0,0,1-28.5,14.79"/><polyline class="cls-11" points="122.75 123.95 116.9 126.08 122 129.03"/><path class="cls-11" d="M117,126.08a18.3,18.3,0,0,1,18,18.32,18.19,18.19,0,0,1-28.5,14.79"/></g></g></svg>