<svg xmlns="http://www.w3.org/2000/svg" viewBox="0 0 174.3 163.96"><defs><style>.cls-1,.cls-3,.cls-5,.cls-7,.cls-8{fill:none;}.cls-1,.cls-2{stroke:red;}.cls-1,.cls-2,.cls-3,.cls-4,.cls-5,.cls-6,.cls-8{stroke-miterlimit:10;}.cls-2,.cls-4,.cls-6{fill:#fff;}.cls-3,.cls-4{stroke:lime;}.cls-5,.cls-6{stroke:blue;}.cls-7{stroke:#fff;stroke-width:3px;}.cls-8{stroke:#000;}.cls-10,.cls-11,.cls-9{font-size:12px;font-family:BookmanOldStyle, Bookman Old Style;}.cls-9{fill:red;}.cls-10{fill:blue;}.cls-11{fill:lime;}</style></defs><g id="レイヤー_2" data-name="レイヤー 2"><g id="レイヤー_1-2" data-name="レイヤー 1"><g id="レイヤー_2-2" data-name="レイヤー 2"><polyline class="cls-1" points="146.04 138.84 160.15 145.34 146.04 151.84"/><line class="cls-2" x1="27.34" y1="145.34" x2="160.34" y2="145.34"/><polyline class="cls-3" points="21.34 27.14 27.84 13.03 34.34 27.14"/><line class="cls-4" x1="27.84" y1="145.84" x2="27.84" y2="12.84"/><polyline class="cls-5" points="120.84 70.34 136.08 67.3 128.49 80.85"/><line class="cls-6" x1="28.63" y1="145.37" x2="136.23" y2="67.19"/><polyline class="cls-7" points="119.92 124.02 114.08 126.15 119.17 129.1"/><path class="cls-7" d="M114.21,126.15a18.3,18.3,0,0,1,18,18.32,18.19,18.19,0,0,1-28.5,14.79"/><polyline class="cls-8" points="119.92 124.02 114.08 126.15 119.17 129.1"/><path class="cls-8" d="M114.21,126.15a18.3,18.3,0,0,1,18,18.32,18.19,18.19,0,0,1-28.5,14.79"/><polyline class="cls-7" points="54.5 62.29 51.5 56.67 47.5 61.59"/><path class="cls-7" d="M51.5,56.79c-.1,9.64-11.25,17.44-25,17.44s-25-7.86-25-17.56a14.14,14.14,0,0,1,4.29-9.83"/><polyline class="cls-8" points="54.5 62.29 51.5 56.67 47.5 61.59"/><path class="cls-8" d="M51.5,56.79c-.1,9.64-11.25,17.44-25,17.44s-25-7.86-25-17.56a14.14,14.14,0,0,1,4.29-9.83"/><polyline class="cls-7" points="103.95 108.95 98.62 106.17 103.59 104.01"/><path class="cls-7" d="M98.74,106.18A16.09,16.09,0,0,0,116.88,91a18.63,18.63,0,0,0-15.94-19.53,16.27,16.27,0,0,0-9.78,1.76"/><polyline class="cls-8" points="103.95 108.95 98.62 106.17 103.59 104.01"/><path class="cls-8" d="M98.74,106.18A16.09,16.09,0,0,0,116.88,91a18.63,18.63,0,0,0-15.94-19.53,16.27,16.27,0,0,0-9.78,1.76"/><text class="cls-9" transform="translate(165.66 145.27)">X</text><text class="cls-10" transform="translate(141.06 66.79)">Z</text><text class="cls-11" transform="translate(24.53 10.09)">Y</text></g></g></g></svg>