<svg xmlns="http://www.w3.org/2000/svg" viewBox="0 0 225.45 233.05"><defs><style>.cls-1,.cls-2,.cls-3{font-size:12px;font-family:BookmanOldStyle, Bookman Old Style;}.cls-1{fill:lime;}.cls-2{fill:red;}.cls-3{fill:blue;}.cls-10,.cls-11,.cls-4,.cls-6,.cls-8{fill:none;}.cls-4,.cls-5{stroke:lime;}.cls-11,.cls-4,.cls-5,.cls-6,.cls-7,.cls-8,.cls-9{stroke-miterlimit:10;}.cls-5,.cls-7,.cls-9{fill:#fff;}.cls-6,.cls-7{stroke:blue;}.cls-8,.cls-9{stroke:red;}.cls-10{stroke:#fff;stroke-width:3px;}.cls-11{stroke:#000;}</style></defs><g id="レイヤー_2" data-name="レイヤー 2"><g id="レイヤー_1-2" data-name="レイヤー 1"><text class="cls-1" transform="translate(217.77 144.71)">Y</text><text class="cls-2" transform="translate(0 229.23)">X</text><text class="cls-3" transform="translate(81.07 10.09)">Z</text><polyline class="cls-4" points="201.08 138.42 215.19 144.92 201.08 151.42"/><line class="cls-5" x1="82.38" y1="144.92" x2="215.38" y2="144.92"/><polyline class="cls-6" points="76.38 26.72 82.88 12.61 89.38 26.72"/><line class="cls-7" x1="82.88" y1="145.42" x2="82.88" y2="12.42"/><polyline class="cls-8" points="25.16 212.37 10.59 217.75 15.96 203.18"/><line class="cls-9" x1="83.64" y1="144.69" x2="10.45" y2="217.88"/><polyline class="cls-10" points="30.25 155.43 26.2 162.96 34.1 161.36"/><path class="cls-10" d="M26.33,162.85a25,25,0,1,1,19.45,43.73"/><polyline class="cls-11" points="30.25 155.43 26.2 162.96 34.1 161.36"/><path class="cls-11" d="M26.33,162.85a25,25,0,1,1,19.45,43.73"/><polyline class="cls-10" points="153.79 163.18 150.57 157.86 156.39 158.75"/><path class="cls-10" d="M150.67,157.93a18.3,18.3,0,0,0,25.54-3,18.08,18.08,0,0,0-3-25.49,18.27,18.27,0,0,0-10-3.91"/><polyline class="cls-11" points="153.79 163.18 150.57 157.86 156.39 158.75"/><path class="cls-11" d="M150.67,157.93a18.3,18.3,0,0,0,25.54-3,18.08,18.08,0,0,0-3-25.49,18.27,18.27,0,0,0-10-3.91"/><polyline class="cls-10" points="110.31 73.81 107.31 68.19 103.31 73.11"/><path class="cls-10" d="M107.3,68.31c-.09,9.64-11.25,17.44-25,17.44s-25-7.86-25-17.56a14.15,14.15,0,0,1,4.28-9.83"/><polyline class="cls-11" points="110.31 73.81 107.31 68.19 103.31 73.11"/><path class="cls-11" d="M107.3,68.31c-.09,9.64-11.25,17.44-25,17.44s-25-7.86-25-17.56a14.15,14.15,0,0,1,4.28-9.83"/></g></g></svg>